PathFileType	4	(X/Y/Z)	C:/Users/beibeiliu/ov580/test_trc\sequence.33_training_dense_left.trc
DataRate	CameraRate	NumFrames	NumMarkers	Units	OrigDataRate	OrigDataStartFrame	OrigNumFrames
120	120	10	19	mm	120	113	169
Frame#	Time	ThumbCMC			ThumbMCP			ThumbIP			ThumbTip			IndexMCP			IndexPIP			IndexTip			MiddleMCP			MiddlePIP			MiddleTip			RingMCP			RingPIP			RingTip			PinkyMCP			PinkyPIP			PinkyTip			BackHand1			BackHand2			BackHand3	
		X0	Y0	Z0	X1	Y1	Z1	X2	Y2	Z2	X3	Y3	Z3	X4	Y4	Z4	X5	Y5	Z5	X6	Y6	Z6	X7	Y7	Z7	X8	Y8	Z8	X9	Y9	Z9	X10	Y10	Z10	X11	Y11	Z11	X12	Y12	Z12	X13	Y13	Z13	X14	Y14	Z14	X15	Y15	Z15	X16	Y16	Z16	X17	Y17	Z17	X18	Y18	Z18	
112	0.933333	-188.485	30.4233	76.7691	-190.743	47.4756	56.69	-196.441	55.3524	39.4086	-206.761	65.2795	24.4791	-161.711	20.7271	12.4367	-150.382	41.147	-6.43483	-144.438	66.4788	10.5853	-136.583	10.3302	17.1224	-127.06	27.5765	-6.04712	-124.263	57.2913	5.9842	-121.372	7.40954	26.4619	-110.264	21.8521	8.57818	-111.491	48.7609	10.36	-107.282	6.54992	47.3835	-96.2297	11.675	32.0486	-91.4825	35.7491	20.1501	-140.589	0.557878	69.5574	-151.478	-2.44965	89.8495	-169.284	2.38716	69.1197	
113	0.941667	-188.447	24.3949	74.4042	-193.452	34.9945	58.4411	-203.186	39.3387	37.9518	-213.484	43.3963	20.8569	-158.033	19.033	14.2642	-144.857	39.6656	-4.67642	-142.053	65.6075	9.43124	-131.132	8.80726	14.4355	-123.364	25.3476	-4.7026	-120.364	59.0106	9.0287	-119.63	5.35803	27.6708	-109.366	19.3405	10.3784	-106.234	49.2797	10.5613	-107.094	5.92998	53.2975	-89.3133	11.1048	34.7657	-83.943	32.5341	22.4012	-142.012	-1.16478	66.7601	-148.349	-6.08262	93.5494	-169.551	1.00799	71.9312	
114	0.95	-186.535	20.2883	80.0052	-194.611	25.6924	53.5976	-202.852	25.5177	33.7262	-209.613	28.6269	18.3845	-156.808	17.3304	13.526	-144.367	37.7052	-4.33871	-137.723	61.5577	5.23453	-135.62	9.46029	16.5166	-118.825	28.3157	-3.30461	-117.949	54.8529	0.00229575	-116.019	4.50731	29.8118	-107.107	16.9749	12.5023	-103.917	43.6551	7.03431	-109.624	6.96362	54.8452	-92.8773	9.43438	36.5658	-82.8661	29.5006	25.6767	-139.944	-0.604016	72.6924	-146.424	-5.72212	91.569	-166.528	-1.92385	72.8963	
115	0.958333	-185.208	18.3043	76.9344	-194.666	22.5228	57.008	-202.358	20.9027	31.234	-203.794	22.7746	12.6383	-157.151	16.8287	14.0342	-144.601	36.388	-6.92241	-141.577	61.2524	-2.30884	-131.241	8.84804	17.4077	-116.576	26.5405	-3.80172	-116.34	52.9787	-4.90689	-120.486	7.9011	32.7513	-105.485	21.3745	8.78925	-104.408	45.2494	4.65006	-105.033	8.3887	53.2366	-89.4144	16.4945	39.0116	-89.4199	39.0663	24.8791	-137.872	0.360624	70.0854	-149.263	-5.13238	91.5127	-169.423	0.483039	69.1992	
116	0.966667	-187.397	17.8843	78.6357	-194.905	21.6646	49.4764	-196.541	24.7694	29.9096	-186.229	29.8721	8.25174	-156.395	16.2058	15.1831	-145.417	28.7857	-6.31106	-141.914	58.2292	-9.35115	-132.636	8.08853	19.4359	-121.353	21.0729	-7.10361	-113.391	50.3031	-10.4589	-118.24	9.701	33.4743	-107.148	22.6012	9.04528	-102.863	46.5634	3.03266	-105.829	14.9519	49.7766	-91.6257	27.2842	37.2851	-98.0229	52.352	30.0367	-140.57	-0.810931	68.2205	-145.778	-6.14694	92.7109	-168.877	-2.25643	71.4927	
117	0.975	-189.264	18.8447	76.2396	-195.559	27.7682	45.6702	-187.383	32.9151	28.0956	-171.114	40.7177	12.0807	-156.086	14.1326	12.2013	-149.998	28.3636	-9.89914	-143.704	54.4451	-15.9129	-134.183	6.82645	18.7958	-120.973	16.5065	-5.08451	-113.057	42.1891	-16.5644	-121.449	11.4314	29.2382	-111.085	21.5388	9.9118	-107.025	48.9151	1.28386	-106.729	20.2212	50.2439	-100.356	39.8432	34.7742	-115.062	61.9511	33.5199	-138.376	-0.198556	66.2064	-151.152	-4.28327	93.6288	-164.506	-2.80903	69.7549	
118	0.983333	-186.193	18.544	73.3706	-189.937	32.751	44.6	-176.922	38.9197	27.9763	-159.83	50.5956	13.703	-160.45	12.8458	11.0822	-152.056	27.6943	-11.2247	-145.501	50.1599	-18.8785	-138.262	6.19056	16.5711	-127.813	13.5322	-7.93466	-116.552	38.1925	-23.4465	-117.892	11.5342	26.5986	-109.832	23.5206	8.63433	-108.535	50.7686	-2.54128	-109.28	22.6825	46.8224	-104.811	42.1151	33.8706	-121.481	63.718	33.6295	-137.705	-2.61403	68.9554	-148.42	-6.60889	93.297	-169.824	-3.69931	71.2178	
119	0.991667	-185.744	20.0097	72.126	-189.602	37.0425	44.1218	-174.786	44.851	25.9399	-153.389	53.1082	17.5822	-162.023	15.6516	13.0495	-152.533	29.2924	-8.3042	-144.514	53.8424	-19.2217	-136.587	6.37959	14.4805	-126.879	15.1264	-11.6079	-116.969	34.3858	-30.6621	-120.789	11.589	25.6993	-114.284	25.1122	5.06456	-108.575	46.916	-4.27305	-110.593	21.6228	43.8461	-105.131	40.7623	31.277	-119.068	62.3499	28.8066	-137.383	-3.10301	64.5806	-146.518	-6.63739	90.456	-166.914	-5.28202	71.467	
120	1	-189.736	21.7068	73.5887	-188.63	37.9019	49.8164	-174.747	46.4839	29.6394	-159.45	54.242	18.7426	-157.443	19.9499	10.3036	-149.13	34.5802	-4.72586	-143.579	56.7969	-16.9246	-138.539	8.76595	16.7025	-130.588	15.5608	-10.8242	-119.346	26.8715	-29.7154	-125.853	12.0752	28.1478	-115.599	22.8001	6.76021	-107.055	45.4612	-8.71254	-111.678	17.9374	41.4212	-103.815	32.2579	25.0766	-103.1	48.8592	17.7028	-139.237	-2.40068	68.6791	-147.909	-5.70407	91.0704	-170.581	-2.5254	65.8022	
121	1.00833	-191.586	23.3283	73.4342	-192.83	39.5807	51.7511	-181.859	47.1714	29.5037	-162.316	56.0679	13.3182	-157.738	24.5373	12.1793	-149.914	40.4474	-2.81396	-140.603	66.0806	-11.622	-140.477	11.9042	10.7662	-137.583	16.9119	-8.93823	-123.023	23.8371	-30.4808	-123.427	11.0201	27.9536	-113.434	18.1564	5.50684	-106.893	33.2505	-12.1029	-111.993	12.5518	46.8147	-99.8515	17.7376	29.0751	-92.4198	29.8705	13.4343	-141.998	-0.214011	64.1207	-149.965	-5.87546	91.8224	-171.524	-2.61995	68.4737	
